<svg width="34" height="36" viewBox="0 0 34 36" fill="none" xmlns="http://www.w3.org/2000/svg">
<path d="M16.7873 27.8667H19.5852V8.80001L28.53 12.8187C28.7819 12.9318 28.9964 13.12 29.1471 13.3599C29.2978 13.5998 29.378 13.8808 29.3778 14.168V27.8667H32.1757V30.8H1.39893V27.8667H4.19681V8.28668C4.19678 8.0029 4.27527 7.72521 4.42276 7.48727C4.57026 7.24933 4.78043 7.06136 5.02779 6.94614L15.8039 1.92428C15.9105 1.87462 16.0272 1.85371 16.1435 1.86344C16.2598 1.87318 16.3719 1.91325 16.4697 1.98001C16.5674 2.04677 16.6477 2.1381 16.7031 2.24569C16.7586 2.35328 16.7876 2.4737 16.7873 2.59601V27.8667Z" fill="#3CA8CF"/>
</svg>
