<svg width="24" height="31" viewBox="0 0 24 31" fill="none" xmlns="http://www.w3.org/2000/svg">
<path d="M11.9998 23.0834C13.5582 23.0834 14.8332 21.8084 14.8332 20.25C14.8332 18.6917 13.5582 17.4167 11.9998 17.4167C10.4415 17.4167 9.1665 18.6917 9.1665 20.25C9.1665 21.8084 10.4415 23.0834 11.9998 23.0834ZM20.4998 10.3334H19.0832V7.50002C19.0832 3.59002 15.9098 0.416687 11.9998 0.416687C8.08984 0.416687 4.9165 3.59002 4.9165 7.50002V10.3334H3.49984C1.9415 10.3334 0.666504 11.6084 0.666504 13.1667V27.3334C0.666504 28.8917 1.9415 30.1667 3.49984 30.1667H20.4998C22.0582 30.1667 23.3332 28.8917 23.3332 27.3334V13.1667C23.3332 11.6084 22.0582 10.3334 20.4998 10.3334ZM7.60817 7.50002C7.60817 5.07752 9.57734 3.10835 11.9998 3.10835C14.4223 3.10835 16.3915 5.07752 16.3915 7.50002V10.3334H7.60817V7.50002ZM20.4998 27.3334H3.49984V13.1667H20.4998V27.3334Z" fill="#3CA8CF"/>
</svg>
